<?xml version="1.0" standalone="no"?>
<!DOCTYPE svg PUBLIC "-//W3C//DTD SVG 20010904//EN"
 "http://www.w3.org/TR/2001/REC-SVG-20010904/DTD/svg10.dtd">
<svg version="1.0" xmlns="http://www.w3.org/2000/svg"
 width="384.000000pt" height="384.000000pt" viewBox="0 0 384.000000 384.000000"
 preserveAspectRatio="xMidYMid meet">
<metadata>
Created by potrace 1.14, written by Peter Selinger 2001-2017
</metadata>
<g transform="translate(0.000000,384.000000) scale(0.100000,-0.100000)"
fill="#000000" stroke="none">
<path d="M1620 3833 c-37 -11 -77 -34 -92 -50 -19 -22 -36 -81 -31 -108 2 -11
6 -164 9 -340 2 -176 7 -326 9 -332 2 -7 0 -13 -5 -13 -6 0 -8 -10 -6 -22 1
-12 -1 -40 -6 -63 -19 -85 -29 -223 -17 -240 3 -5 10 -36 13 -67 4 -32 10 -58
14 -58 4 0 7 -18 6 -40 0 -22 2 -40 6 -40 4 0 6 -16 5 -35 0 -19 2 -35 5 -35
3 0 5 -22 5 -50 0 -27 2 -50 5 -50 3 0 6 -9 7 -20 1 -11 -3 -20 -8 -20 -6 0
-7 -6 -1 -16 14 -26 3 -52 -25 -59 -26 -6 -43 6 -43 33 0 6 -4 12 -8 12 -4 0
-8 8 -8 18 -1 9 -4 31 -8 47 -4 17 -9 44 -11 60 -2 17 -8 50 -11 75 -4 25 -8
57 -8 73 -1 15 -3 27 -6 27 -3 0 -6 8 -6 18 -1 9 -5 31 -9 47 -4 17 -7 38 -8
48 -1 9 -4 17 -8 17 -3 0 -9 18 -13 40 -3 22 -11 40 -17 40 -6 0 -9 9 -6 20 3
11 2 20 -3 20 -8 0 -48 100 -55 136 -2 10 -4 19 -5 19 -3 0 -30 129 -35 170
-3 17 -7 41 -10 55 -4 14 -8 39 -10 55 -11 82 -14 103 -19 134 -3 18 -8 40
-10 50 -3 9 -8 39 -11 66 -8 73 -9 77 -25 115 -8 19 -23 43 -34 52 -12 10 -27
22 -33 28 -7 6 -42 13 -77 17 -54 5 -72 2 -110 -16 -46 -23 -93 -81 -81 -101
3 -5 1 -10 -6 -10 -9 0 -9 -3 0 -14 8 -10 9 -16 1 -21 -6 -3 -7 -11 -4 -17 7
-11 16 -82 18 -140 0 -21 3 -38 6 -38 3 0 6 -17 7 -38 1 -20 4 -50 7 -67 3
-16 8 -50 11 -75 3 -25 8 -56 11 -68 2 -13 7 -43 10 -65 3 -23 7 -53 10 -67 6
-26 13 -74 18 -127 2 -17 6 -36 10 -41 3 -6 2 -13 -4 -17 -6 -4 -7 -11 -3 -17
3 -7 8 -36 9 -66 2 -29 12 -83 24 -118 11 -35 21 -75 22 -89 1 -14 5 -25 9
-25 3 0 6 -6 6 -12 0 -7 4 -26 7 -43 4 -16 9 -39 11 -50 3 -11 11 -41 18 -66
8 -24 13 -53 11 -62 -1 -9 1 -17 5 -17 4 0 7 -10 8 -22 1 -13 4 -34 7 -48 4
-14 8 -49 11 -78 4 -52 4 -53 -38 -83 l-42 -30 -22 26 c-13 14 -23 35 -23 45
0 10 -5 22 -10 25 -6 4 -8 10 -5 14 2 5 -6 36 -19 70 -14 33 -22 61 -18 61 3
0 1 5 -6 12 -7 7 -12 20 -12 30 0 10 -5 18 -11 18 -5 0 -8 4 -5 9 7 11 -61
148 -86 175 -10 11 -18 26 -18 33 0 7 -4 13 -8 13 -4 0 -14 17 -21 38 -7 20
-16 46 -21 57 -11 26 -22 57 -27 73 -1 6 -5 18 -6 25 -2 6 -7 21 -11 32 -18
46 -25 71 -28 90 -2 11 -5 22 -8 25 -3 3 -16 39 -30 80 -53 162 -112 222 -209
214 -43 -4 -114 -41 -105 -55 2 -4 -2 -9 -8 -11 -17 -6 -15 -69 6 -213 3 -16
5 -30 6 -30 1 0 3 -10 6 -22 2 -13 6 -33 8 -45 3 -13 5 -23 6 -23 1 0 3 -11 6
-24 2 -14 9 -30 15 -38 6 -7 8 -13 4 -13 -4 0 -2 -7 5 -15 7 -8 9 -15 4 -15
-5 0 -4 -4 1 -8 11 -7 41 -96 34 -98 -2 0 2 -8 10 -17 7 -10 11 -17 8 -17 -3
0 1 -17 10 -37 8 -21 17 -53 19 -71 3 -19 9 -42 14 -52 5 -9 6 -20 3 -24 -3
-3 -1 -6 5 -6 7 0 11 -3 10 -7 -2 -5 7 -33 19 -63 25 -61 45 -114 44 -117 0
-2 6 -18 14 -37 8 -18 11 -36 8 -40 -4 -3 -2 -6 4 -6 5 0 16 -25 23 -55 7 -30
17 -55 22 -55 5 0 7 -4 4 -8 -3 -5 1 -20 9 -35 8 -15 11 -27 8 -27 -3 0 -1 -6
4 -12 5 -7 8 -23 7 -36 0 -12 2 -22 5 -22 4 0 7 -35 8 -77 1 -43 5 -91 8 -108
4 -16 7 -37 7 -45 0 -8 6 -44 14 -80 8 -36 16 -76 18 -90 3 -14 5 -25 6 -25 1
0 3 -13 5 -30 20 -187 48 -348 72 -405 3 -8 7 -18 8 -22 2 -5 3 -9 5 -10 1 -2
3 -10 5 -18 6 -23 70 -189 96 -245 12 -27 23 -52 24 -55 1 -3 7 -18 14 -35 7
-16 12 -31 12 -32 -3 -11 167 -183 180 -183 4 0 14 -6 21 -12 38 -35 227 -140
246 -136 4 1 19 -4 35 -10 29 -13 73 -23 97 -24 8 0 20 -4 25 -7 6 -4 26 -8
45 -10 19 -1 51 -6 70 -10 19 -4 98 -7 175 -6 196 2 217 4 210 14 -3 5 0 13 6
17 8 5 9 3 4 -5 -9 -15 42 -13 63 2 6 5 12 7 12 4 0 -3 15 -1 33 4 17 6 40 12
51 14 10 2 25 10 34 17 13 11 14 11 8 0 -5 -9 6 -6 30 6 22 11 41 20 44 20 3
1 13 4 23 8 15 5 15 9 5 23 -11 14 -11 14 7 -1 16 -13 22 -14 32 -3 6 7 10 15
8 17 -2 2 5 5 17 5 12 1 24 7 28 13 4 7 9 10 11 8 6 -5 98 55 94 62 -2 3 10
12 26 19 20 9 28 18 25 28 -3 8 -1 11 5 8 5 -4 21 5 34 19 13 14 27 26 30 26
7 0 125 118 125 125 0 3 18 28 40 56 22 28 40 55 40 60 0 6 5 7 10 4 6 -3 10
-1 10 6 0 6 8 19 18 28 11 9 30 36 44 61 13 25 29 45 34 45 5 0 19 10 32 23
12 12 20 22 17 22 -2 0 6 10 18 23 12 13 38 42 57 66 19 24 46 56 60 71 14 15
36 42 50 59 14 17 30 37 35 44 6 7 11 19 13 27 2 8 8 18 13 21 6 3 9 10 8 15
-1 5 0 16 4 24 27 72 61 166 62 170 0 3 22 48 49 100 27 52 54 105 60 117 6
13 15 23 19 23 5 0 6 4 3 9 -3 5 1 14 9 21 8 7 15 19 15 26 0 8 5 14 10 14 6
0 9 3 8 8 -2 4 14 37 35 75 46 81 48 88 52 197 5 106 14 142 59 235 71 145 78
178 46 215 -16 19 -30 23 -72 22 -90 -1 -178 -48 -285 -153 -66 -65 -167 -202
-156 -213 3 -3 2 -6 -4 -6 -9 0 -25 -35 -28 -65 -5 -37 -20 -81 -31 -90 -7 -5
-25 -35 -40 -65 -27 -55 -34 -65 -66 -101 -10 -10 -18 -22 -18 -26 0 -5 -13
-23 -29 -42 -17 -19 -28 -38 -25 -43 3 -4 0 -8 -6 -8 -6 0 -9 -4 -5 -9 3 -6
-27 -25 -67 -44 -76 -37 -108 -36 -108 2 0 10 -3 21 -7 25 -5 4 -8 11 -8 14
-1 4 -6 17 -13 30 -7 12 -10 22 -6 22 3 0 -1 11 -9 24 -9 13 -18 35 -21 49 -2
14 -9 35 -16 46 -6 12 -9 21 -6 21 3 0 0 15 -5 33 -5 17 -11 55 -14 82 -3 28
-8 68 -11 90 -4 22 -8 49 -9 60 -1 11 -5 28 -10 38 -4 9 -5 23 -2 31 3 8 3 17
-1 20 -3 4 -5 32 -3 64 1 31 4 78 4 104 1 27 4 48 7 48 3 0 6 26 6 58 3 124 9
222 14 222 3 0 7 19 8 43 4 71 9 108 16 114 3 3 1 12 -4 18 -11 13 -8 439 3
481 3 11 2 27 -3 34 -5 7 -4 24 1 37 5 14 5 23 -1 23 -6 0 -6 9 0 25 5 14 6
25 2 25 -4 0 -8 19 -10 43 -3 58 -6 67 -26 110 -42 87 -177 116 -255 56 -22
-17 -56 -69 -46 -69 3 0 0 -11 -5 -26 -6 -14 -12 -37 -15 -52 -3 -15 -7 -38
-10 -52 -3 -14 -8 -47 -10 -75 -3 -27 -8 -70 -12 -95 -3 -25 -6 -53 -5 -62 0
-10 -3 -20 -9 -23 -5 -4 -5 -13 1 -24 5 -10 6 -22 2 -25 -4 -4 -7 -19 -8 -34
-7 -111 -10 -142 -14 -142 -3 0 -6 -11 -6 -25 -1 -14 -5 -33 -9 -43 -4 -9 -9
-24 -11 -32 -4 -21 -10 -43 -17 -60 -11 -28 -27 -145 -30 -217 -1 -24 -4 -43
-7 -43 -3 0 -5 -33 -6 -73 -1 -123 -12 -217 -27 -240 -13 -20 -24 -23 -91 -24
-42 -1 -76 1 -77 5 0 4 -2 18 -5 32 -10 69 -15 156 -19 380 -3 166 -9 265 -19
308 -8 34 -12 62 -10 62 3 0 0 10 -7 21 -9 17 -8 20 2 14 8 -6 10 -4 4 6 -5 7
-10 34 -11 59 -1 25 -5 70 -8 100 -14 137 -15 201 -4 194 8 -5 8 -3 2 7 -5 8
-10 41 -10 74 -1 33 -5 76 -9 95 -4 19 -9 55 -10 80 -8 106 -31 153 -93 188
-38 21 -129 35 -162 25z"/>
</g>
</svg>
